<?xml version="1.0"?>
<svg xmlns="http://www.w3.org/2000/svg" height="512px" viewBox="0 0 64 64" width="512px" class="hovered-paths"><g><path d="m44 48.6v-5.6l-9-1-19 2v-24.35l-3 .26v-16.91h-3a4 4 0 0 0 -4 4v50a4 4 0 0 0 4 4h30a4 4 0 0 0 4-4v-7h-6v-2zm-12 .87a22.77 22.77 0 0 1 -3.69-1.1l3.69-.37z" fill="#cff09e" data-original="#CFF09E" class="hovered-path active-path" data-old_color="#cff09e" style="fill:#F09E9E"/><rect fill="#a8dba8" height="4" rx="2" width="12" x="19" y="53" data-original="#A8DBA8" class="" data-old_color="#a8dba8" style="fill:#DBA8A8"/><path d="m35 16.33a1.86 1.86 0 0 1 0-.33 1.86 1.86 0 0 1 0 .33z" fill="#79bd9a" data-original="#79BD9A" class="" data-old_color="#79bd9a" style="fill:#BD7979"/><path d="m54 17.65v26.35l-19-2-19 2v-26.35l-4 .35v30l20-2v2a1 1 0 0 0 1 1h4a1 1 0 0 0 1-1v-2l20 2v-30z" fill="#79bd9a" data-original="#79BD9A" class="" data-old_color="#79bd9a" style="fill:#BD7979"/><path d="m30 22h-3v-3h-4v3h-3v4h3v3h4v-3h3z" fill="#a8dba8" data-original="#A8DBA8" class="" data-old_color="#a8dba8" style="fill:#DBA8A8"/><path d="m43 33 .5-.5a2.12 2.12 0 0 1 3 0 2.12 2.12 0 0 1 0 3l-3.5 3.5-3.5-3.5a2.12 2.12 0 0 1 0-3 2.12 2.12 0 0 1 3 0z" fill="#a8dba8" data-original="#A8DBA8" class="" data-old_color="#a8dba8" style="fill:#DBA8A8"/><path d="m47 40.94a10 10 0 0 1 -9-9.94v-16.67a2.89 2.89 0 0 1 .18-1 3 3 0 0 0 -3.18 3v25.67l19 2v-2.32z" fill="#cff09e" data-original="#CFF09E" class="hovered-path active-path" data-old_color="#cff09e" style="fill:#F09E9E"/><path d="m27.84 39.07a8 8 0 0 1 -8.84-8v-16.39l-3 .32v29l19-2v-3.68z" fill="#cff09e" data-original="#CFF09E" class="hovered-path active-path" data-old_color="#cff09e" style="fill:#F09E9E"/><g fill="#3b8686"><path d="m29 52h-8a3 3 0 0 0 0 6h8a3 3 0 0 0 0-6zm0 4h-8a1 1 0 0 1 0-2h8a1 1 0 0 1 0 2z" data-original="#000000" class="" style="fill:#000000"/><circle cx="11" cy="8" r="1" data-original="#000000" class="" style="fill:#000000"/><circle cx="15" cy="8" r="1" data-original="#000000" class="" style="fill:#000000"/><circle cx="19" cy="8" r="1" data-original="#000000" class="" style="fill:#000000"/><path d="m58.09 17-3.09-.26v-1.74a1 1 0 0 0 -.9-1l-9.1-1v-6a5 5 0 0 0 -5-5h-30a5 5 0 0 0 -5 5v50a5 5 0 0 0 5 5h30a5 5 0 0 0 5-5v-9.29l12.9 1.29a1 1 0 0 0 1.1-1v-30a1 1 0 0 0 -.91-1zm-22.09-.67a2 2 0 0 1 2.21-2l14.79 1.57v27l-17-1.8zm7 40.67a3 3 0 0 1 -3 3h-30a3 3 0 0 1 -3-3v-50a3 3 0 0 1 3-3h30a3 3 0 0 1 3 3v5.84l-4.58-.49a4 4 0 0 0 -3.1 1c-.12.11-.21.24-.32.36-.11-.12-.2-.25-.32-.36a4 4 0 0 0 -3.1-1l-15.68 1.65a1 1 0 0 0 -.9 1v1.74l-3.09.26a1 1 0 0 0 -.91 1v30a1 1 0 0 0 1.1 1l18.9-1.9v.9a2 2 0 0 0 2 2h4a2 2 0 0 0 2-2v-.9l4 .41zm-9-15.9-17 1.79v-27l14.79-1.56a2 2 0 0 1 2.21 2zm23 5.8-18.9-1.9a1 1 0 0 0 -.77.26 1 1 0 0 0 -.33.74v2h-4v-2a1 1 0 0 0 -.33-.74 1 1 0 0 0 -.77-.26l-18.9 1.9v-28l2-.18v25.28a1 1 0 0 0 .33.74 1 1 0 0 0 .67.26h.1l18.9-2 18.9 2h.1a1 1 0 0 0 .67-.26 1 1 0 0 0 .33-.74v-25.26l2 .18z" data-original="#000000" class="" style="fill:#000000"/><path d="m30 21h-2v-2a1 1 0 0 0 -1-1h-4a1 1 0 0 0 -1 1v2h-2a1 1 0 0 0 -1 1v4a1 1 0 0 0 1 1h2v2a1 1 0 0 0 1 1h4a1 1 0 0 0 1-1v-2h2a1 1 0 0 0 1-1v-4a1 1 0 0 0 -1-1zm-1 4h-2a1 1 0 0 0 -1 1v2h-2v-2a1 1 0 0 0 -1-1h-2v-2h2a1 1 0 0 0 1-1v-2h2v2a1 1 0 0 0 1 1h2z" data-original="#000000" class="" style="fill:#000000"/><path d="m30 32h-8a1 1 0 0 0 0 2h8a1 1 0 0 0 0-2z" data-original="#000000" class="" style="fill:#000000"/><path d="m26 36h-6a1 1 0 0 0 0 2h6a1 1 0 0 0 0-2z" data-original="#000000" class="" style="fill:#000000"/><path d="m47.21 31.79a3.2 3.2 0 0 0 -4.21-.19 3.2 3.2 0 0 0 -4.21.19 3.14 3.14 0 0 0 0 4.42l3.5 3.5a1 1 0 0 0 1.42 0l3.5-3.5a3.14 3.14 0 0 0 0-4.42zm-1.42 3-2.79 2.8-2.79-2.8a1.12 1.12 0 1 1 1.58-1.58l.5.5a1 1 0 0 0 1.42 0l.5-.5a1.13 1.13 0 0 1 1.58 0 1.11 1.11 0 0 1 0 1.58z" data-original="#000000" class="" style="fill:#000000"/><path d="m50 38h-2a1 1 0 0 0 0 2h2a1 1 0 0 0 0-2z" data-original="#000000" class="" style="fill:#000000"/><path d="m50 27h-10a1 1 0 0 0 0 2h10a1 1 0 0 0 0-2z" data-original="#000000" class="" style="fill:#000000"/><path d="m50 23h-10a1 1 0 0 0 0 2h10a1 1 0 0 0 0-2z" data-original="#000000" class="" style="fill:#000000"/><path d="m50 19h-7a1 1 0 0 0 0 2h7a1 1 0 0 0 0-2z" data-original="#000000" class="" style="fill:#000000"/></g></g> </svg>
