<?xml version="1.0"?>
<svg xmlns="http://www.w3.org/2000/svg" viewBox="0 0 64 64" width="512" height="512"><g id="Outline"><g><path d="M16,12v2a2,2,0,0,0,2,2h.7A7,7,0,0,0,21,18.73V20a4,4,0,0,0,8,0h5a3,3,0,0,1,3,3v4a1,1,0,0,0,2,0V23a5,5,0,0,0-5-5H29.89a7.09,7.09,0,0,0,1.41-2H32a2,2,0,0,0,2-2V12a2,2,0,0,0-.56-1.39A5,5,0,0,0,30,2H16a1,1,0,0,0-1,1V7a5,5,0,0,0,1.56,3.61A2,2,0,0,0,16,12Zm2,0h5.8l-1,1.55a1,1,0,0,1-.83.45H18Zm7,10a2,2,0,0,1-2-2v-.3a6.82,6.82,0,0,0,4,0V20A2,2,0,0,1,25,22Zm0-4a5,5,0,0,1-4-2h.92a3,3,0,0,0,2.5-1.34L25,13.8l.57.86A3,3,0,0,0,28.07,16H29A5,5,0,0,1,25,18Zm7-4H28.07a1,1,0,0,1-.83-.45L26.2,12H32ZM17,4H30a3,3,0,0,1,2,5.22V7a1,1,0,0,0-1-1H29a1,1,0,0,0,0,2h1v2H20V8h5a1,1,0,0,0,0-2H19a1,1,0,0,0-1,1V9.22A3,3,0,0,1,17,7Z"/><path d="M35.5,41A3.5,3.5,0,0,0,39,38h0a3,3,0,0,0,0-6V31a1,1,0,0,0-2,0v3H34V25a1,1,0,0,0-2,0v2H29.82a3,3,0,0,0-5.64,0H18V25a1,1,0,0,0-2,0v6H13V23a3,3,0,0,1,3-3h1a1,1,0,0,0,0-2H16a5,5,0,0,0-5,5v8H7a1,1,0,0,0-1,1v9a1,1,0,0,0,2,0V33h3v4.5A3.5,3.5,0,0,0,14.5,41a3.45,3.45,0,0,0,1.5-.35V55H14a3,3,0,0,0-3,3v3a1,1,0,0,0,1,1H23a1,1,0,0,0,1-1V42h2V61a1,1,0,0,0,1,1H38a1,1,0,0,0,1-1V58a3,3,0,0,0-3-3H34V43a1,1,0,0,0-2,0v9H28V41a1,1,0,0,0-1-1H23a1,1,0,0,0-1,1V52H18V36H32v1.5A3.5,3.5,0,0,0,35.5,41ZM32,54v2a1,1,0,0,0,1,1h3a1,1,0,0,1,1,1v2H28V54Zm8-19a1,1,0,0,1-1,1V34A1,1,0,0,1,40,35Zm-3,1v1.5a1.5,1.5,0,0,1-3,0V36ZM27,27a1,1,0,1,1-1,1A1,1,0,0,1,27,27ZM14.5,39A1.5,1.5,0,0,1,13,37.5V33h3v4.5A1.5,1.5,0,0,1,14.5,39ZM22,54v6H13V58a1,1,0,0,1,1-1h3a1,1,0,0,0,1-1V54ZM18,34V33h3a1,1,0,0,0,.45-.11l2-1a1,1,0,0,0-.9-1.78L20.76,31H18V29h6.18a3,3,0,0,0,5.64,0H32v5Z"/><path d="M3,8H6v4a1,1,0,0,0,1,1h6a1,1,0,0,0,0-2H8V8h3a1,1,0,0,0,1-1V3a1,1,0,0,0-1-1H3A1,1,0,0,0,2,3V7A1,1,0,0,0,3,8ZM4,4h6V6H4Z"/><path d="M54,45H46a1,1,0,0,0-1,1v4a1,1,0,0,0,1,1h8a1,1,0,0,0,1-1V46A1,1,0,0,0,54,45Zm-1,4H47V47h6Z"/><path d="M54,53H49a1,1,0,0,0,0,2h5a1,1,0,0,0,0-2Z"/><path d="M52,57a1,1,0,0,0-1,1v2H42a1,1,0,0,0,0,2H52a1,1,0,0,0,1-1V58A1,1,0,0,0,52,57Z"/><path d="M61,16a1,1,0,0,0,1-1V5a3,3,0,0,0-3-3H45a3,3,0,0,0-3,3V25a3,3,0,0,0,3,3H59a3,3,0,0,0,3-3V19a1,1,0,0,0-2,0v6a1,1,0,0,1-1,1H45a1,1,0,0,1-1-1V5a1,1,0,0,1,1-1H59a1,1,0,0,1,1,1V15A1,1,0,0,0,61,16Z"/><path d="M50,24h4a1,1,0,0,0,0-2H50a1,1,0,0,0,0,2Z"/><circle cx="47" cy="7" r="1"/><circle cx="51" cy="7" r="1"/><path d="M48,19a1,1,0,0,0,1-1V15a1,1,0,0,0-2,0v3A1,1,0,0,0,48,19Z"/><path d="M51,13v5a1,1,0,0,0,2,0V13a1,1,0,0,0-2,0Z"/><path d="M55,10v8a1,1,0,0,0,2,0V10a1,1,0,0,0-2,0Z"/><circle cx="53" cy="31" r="1"/><circle cx="49" cy="35" r="1"/><circle cx="53" cy="35" r="1"/><circle cx="45" cy="35" r="1"/><path d="M12.24,47.12a3.12,3.12,0,0,0-5.12-2.4,3.12,3.12,0,0,0-4.21,4.61l3.5,3.5a1,1,0,0,0,.71.29,1,1,0,0,0,.71-.29l3.5-3.5A3.09,3.09,0,0,0,12.24,47.12Zm-2.33.79-2.79,2.8-2.79-2.8A1.12,1.12,0,0,1,5.12,46a1.09,1.09,0,0,1,.79.33l.5.5a1,1,0,0,0,1.42,0l.5-.5a1.11,1.11,0,0,1,1.58,0,1.11,1.11,0,0,1,0,1.58Z"/></g></g></svg>
