<?xml version="1.0"?>
<svg xmlns="http://www.w3.org/2000/svg" viewBox="0 0 64 64" width="512" height="512"><g id="Outline"><g><path d="M61,2H3A1,1,0,0,0,2,3V16a1,1,0,0,0,2,0V4H60V39a1,1,0,0,0,2,0V3A1,1,0,0,0,61,2Z"/><path d="M61,42a1,1,0,0,0-1,1V60H4V20a1,1,0,0,0-2,0V61a1,1,0,0,0,1,1H61a1,1,0,0,0,1-1V43A1,1,0,0,0,61,42Z"/><path d="M6,15V57a1,1,0,0,0,1,1H57a1,1,0,0,0,1-1V15a1,1,0,0,0-1-1H50a1,1,0,0,0,0,2h6v4H43V19a1,1,0,0,0-1-1H28a1,1,0,0,0-1,1v1H8V16H46a1,1,0,0,0,0-2H7A1,1,0,0,0,6,15Zm50,7V56H28.33A12.73,12.73,0,0,0,34,45.5a9.43,9.43,0,0,0-.85-3.91,1,1,0,0,0-1.82.82A7.5,7.5,0,0,1,32,45.5c0,6.84-6,9.79-7.5,10.42C23,55.29,17,52.28,17,45.5a7.51,7.51,0,0,1,1-3.72V42a1,1,0,0,0,2,0V38a3,3,0,0,0-3-3H16V33h3a3,3,0,0,1,2.82,2,1,1,0,0,0,1.5.49A3,3,0,0,1,25,35h6v2H26a3,3,0,0,0-3,3v2a1,1,0,0,0,2,0V40a1,1,0,0,1,1-1H38a3,3,0,0,0,0-6,2,2,0,0,1-2-1.76l2.84-4.73,0-.08a.36.36,0,0,0,0-.09A1,1,0,0,0,39,26V24h3a1,1,0,0,0,1-1V22ZM24,33.11a4.42,4.42,0,0,0-.79.22A5,5,0,0,0,22,32V29h2Zm11-4.05L33.77,27h2.46ZM29,20H41v2H38a1,1,0,0,0-1,1v2H33V23a1,1,0,0,0-1-1H29Zm-2,2v1a1,1,0,0,0,1,1h3v2a1,1,0,0,0,.07.34.36.36,0,0,0,0,.09l0,.08L34,31.33A4,4,0,0,0,38,35a1,1,0,0,1,0,2H33V34a1,1,0,0,0-1-1H26V28a1,1,0,0,0-1-1H21a1,1,0,0,0-1,1v3.11A4.79,4.79,0,0,0,19,31H15a1,1,0,0,0-1,1v4a1,1,0,0,0,1,1h2a1,1,0,0,1,1,1v.6a9.45,9.45,0,0,0-3,6.9A12.73,12.73,0,0,0,20.67,56H8V22Z"/><path d="M12,12a1,1,0,0,0,1-1V7a1,1,0,0,0-1-1H8A1,1,0,0,0,7,7v4a1,1,0,0,0,1,1ZM9,8h2v2H9Z"/><path d="M20,12a1,1,0,0,0,1-1V7a1,1,0,0,0-1-1H16a1,1,0,0,0-1,1v4a1,1,0,0,0,1,1ZM17,8h2v2H17Z"/><path d="M28,8a1,1,0,0,0,0-2H24a1,1,0,0,0-1,1v4a1,1,0,0,0,1,1h4a1,1,0,0,0,0-2H25V8Z"/><path d="M21,46a1,1,0,0,0,0,2,2,2,0,0,1,2,2v1a1,1,0,0,0,2,0V50A4,4,0,0,0,21,46Z"/><path d="M29,45a3,3,0,0,0-3,3v1a1,1,0,0,0,2,0V48a1,1,0,0,1,1-1,1,1,0,0,0,0-2Z"/><path d="M56,12a1,1,0,0,0,1-1V6a1,1,0,0,0-1-1H38a1,1,0,0,0-1,1v5a1,1,0,0,0,1,1ZM39,7H55v3H39Z"/><path d="M40.34,44.26A1,1,0,0,0,40,45v8a1,1,0,0,0,1,1h8a1,1,0,0,0,.74-.34h0l4-4.5A1,1,0,0,0,54,48.5V41h0a.83.83,0,0,0-.07-.38A1,1,0,0,0,53,40H45.5a1,1,0,0,0-.66.25l-4.5,4ZM48,52H42V46h6Zm2-1.63v-5l2-2v4.71ZM45.88,42h4.71l-2,2h-5Z"/><path d="M47,32h5a1,1,0,0,0,0-2H47a1,1,0,0,0,0,2Z"/><path d="M47,36h3a1,1,0,0,0,0-2H47a1,1,0,0,0,0,2Z"/><path d="M47,28h2a1,1,0,0,0,0-2H47a1,1,0,0,0,0,2Z"/></g></g></svg>
