<?xml version="1.0"?>
<svg xmlns="http://www.w3.org/2000/svg" height="512px" viewBox="0 0 64 64" width="512px" class="hovered-paths"><g><path d="m43 54a27 27 0 0 1 -19.55-45.61 27.56 27.56 0 0 0 -5.45 2.61 2.48 2.48 0 0 1 -.34.88 2 2 0 0 1 .34 1.12 2 2 0 0 1 -2 2 2.06 2.06 0 0 1 -.26 0 2 2 0 0 1 -1.88 1 1.89 1.89 0 0 1 -1.32-.67 27 27 0 1 0 39 37.29 26.88 26.88 0 0 1 -8.54 1.38z" fill="#cff09e" data-original="#CFF09E" class="hovered-path active-path" data-old_color="#cff09e" style="fill:#F09E9E"/><path d="m54.37 49.13a27 27 0 0 1 -22.37 11.87h29v-4a8 8 0 0 0 -6.63-7.87z" fill="#a8dba8" data-original="#A8DBA8" class="" data-old_color="#a8dba8" style="fill:#DBA8A8"/><path d="m9.63 49.13a8 8 0 0 0 -6.63 7.87v4h29a27 27 0 0 1 -22.37-11.87z" fill="#a8dba8" data-original="#A8DBA8" class="" data-old_color="#a8dba8" style="fill:#DBA8A8"/><path d="m51.05 45a22 22 0 1 0 -38.05 0z" fill="#a8dba8" data-original="#A8DBA8" class="" data-old_color="#a8dba8" style="fill:#DBA8A8"/><path d="m44 45a15 15 0 1 0 -24 0z" fill="#79bd9a" data-original="#79BD9A" class="" data-old_color="#79bd9a" style="fill:#BD7979"/><path d="m18 39h28a2 2 0 0 1 2 2v4a0 0 0 0 1 0 0h-32a0 0 0 0 1 0 0v-4a2 2 0 0 1 2-2z" fill="#cff09e" data-original="#CFF09E" class="hovered-path active-path" data-old_color="#cff09e" style="fill:#F09E9E"/><rect fill="#cff09e" height="8" rx="4" width="24" x="20" y="31" data-original="#CFF09E" class="hovered-path active-path" data-old_color="#cff09e" style="fill:#F09E9E"/><path d="m28 35h8a2 2 0 0 1 2 2v2a0 0 0 0 1 0 0h-12a0 0 0 0 1 0 0v-2a2 2 0 0 1 2-2z" fill="#79bd9a" data-original="#79BD9A" class="" data-old_color="#79bd9a" style="fill:#BD7979"/><circle cx="32" cy="29" fill="#cff09e" r="6" data-original="#CFF09E" class="hovered-path active-path" data-old_color="#cff09e" style="fill:#F09E9E"/><circle cx="21" cy="51" fill="#79bd9a" r="2" data-original="#79BD9A" class="" data-old_color="#79bd9a" style="fill:#BD7979"/><circle cx="32" cy="51" fill="#79bd9a" r="2" data-original="#79BD9A" class="" data-old_color="#79bd9a" style="fill:#BD7979"/><circle cx="43" cy="51" fill="#79bd9a" r="2" data-original="#79BD9A" class="" data-old_color="#79bd9a" style="fill:#BD7979"/><path d="m51 3h10v4h-10z" fill="#a8dba8" data-original="#A8DBA8" class="" data-old_color="#a8dba8" style="fill:#DBA8A8"/><path d="m3 3v18h18v-18zm13 12a2.06 2.06 0 0 1 -.26 0 2 2 0 0 1 -1.88 1 2.09 2.09 0 0 1 -1.86-2.13 2.09 2.09 0 0 1 -1.86 2.13 2 2 0 0 1 -1.88-1 2.06 2.06 0 0 1 -.26 0 2 2 0 0 1 -2-2 2 2 0 0 1 .39-1.17 2.46 2.46 0 0 1 -.31-2 2.51 2.51 0 0 1 1.62-1.7 2.57 2.57 0 0 1 1.3-.08s0-.05 0-.05a1 1 0 0 1 1-1h1a1 1 0 0 1 1 1 1 1 0 0 1 1-1h1a1 1 0 0 1 1 1s0 0 0 .05a2.57 2.57 0 0 1 1.31.08 2.51 2.51 0 0 1 1.62 1.73 2.46 2.46 0 0 1 -.31 2 2 2 0 0 1 .38 1.14 2 2 0 0 1 -2 2z" fill="#79bd9a" data-original="#79BD9A" class="" data-old_color="#79bd9a" style="fill:#BD7979"/><path d="m17 13a2.06 2.06 0 0 1 -.26 0 2 2 0 0 1 -1.88 1 2.09 2.09 0 0 1 -1.86-2.13v-4.87a1 1 0 0 0 -1 1v5.87a2.09 2.09 0 0 0 1.86 2.13 2 2 0 0 0 1.88-1 2.06 2.06 0 0 0 .26 0 2 2 0 0 0 2-2 1.87 1.87 0 0 0 0-.25 2.08 2.08 0 0 1 -1 .25z" fill="#cff09e" data-original="#CFF09E" class="hovered-path active-path" data-old_color="#cff09e" style="fill:#F09E9E"/><path d="m11.14 14a2 2 0 0 1 -1.88-1 2.06 2.06 0 0 1 -.26 0 2 2 0 0 1 -2-2 2 2 0 0 1 .39-1.17 2.48 2.48 0 0 1 -.39-1.32 2.55 2.55 0 0 0 -.93 1.35 2.46 2.46 0 0 0 .31 2 2 2 0 0 0 -.38 1.14 2 2 0 0 0 2 2 2.06 2.06 0 0 0 .26 0 2 2 0 0 0 1.88 1 2.09 2.09 0 0 0 1.86-2.13v-.16a1.9 1.9 0 0 1 -.86.29z" fill="#cff09e" data-original="#CFF09E" class="hovered-path active-path" data-old_color="#cff09e" style="fill:#F09E9E"/><g fill="#3b8686"><path d="m55.94 48.51a28 28 0 0 0 .82-27.57l2.6-1a1 1 0 0 0 .64-.94v-5a1 1 0 0 0 -2 0v4.32l-2.25.87a28 28 0 0 0 -23.75-13.19 27.67 27.67 0 0 0 -10 1.85v-4.85a1 1 0 0 0 -1-1h-18a1 1 0 0 0 -1 1v18a1 1 0 0 0 1 1h3.7a28 28 0 0 0 1.36 26.51 9 9 0 0 0 -6.06 8.49v4a1 1 0 0 0 1 1h58a1 1 0 0 0 1-1v-4a9 9 0 0 0 -6.06-8.49zm-23.94-40.51a26 26 0 0 1 21.85 11.93l-2.85 1.07a23 23 0 0 0 -29-7.7v-3.3a25.77 25.77 0 0 1 10-2zm8.07 18.36a1 1 0 0 0 .93.64.92.92 0 0 0 .36-.07l8.8-3.42a20.87 20.87 0 0 1 .3 20.49h-1.46v-3a3 3 0 0 0 -3-3h-2a4.92 4.92 0 0 0 1-3 5 5 0 0 0 -5-5h-1.08a6.63 6.63 0 0 0 .08-1 7 7 0 0 0 -14 0 6.63 6.63 0 0 0 .08 1h-1.08a5 5 0 0 0 -5 5 4.92 4.92 0 0 0 1 3h-2a3 3 0 0 0 -3 3v3h-1.46a20.92 20.92 0 0 1 1.25-22h6.21a1 1 0 0 0 1-1v-5.45a20.93 20.93 0 0 1 27.06 6.24l-8.42 3.28a1 1 0 0 0 -.57 1.29zm-19.07 8.64a3 3 0 0 1 3-3h1.69a7 7 0 0 0 1.54 2.11 3 3 0 0 0 -2.23 2.89v1h-1a3 3 0 0 1 -3-3zm19 3h-1v-1a3 3 0 0 0 -2.23-2.89 7 7 0 0 0 1.54-2.11h1.69a3 3 0 0 1 0 6zm-12-2h8a1 1 0 0 1 1 1v1h-10v-1a1 1 0 0 1 1-1zm4-2a5 5 0 1 1 5-5 5 5 0 0 1 -5 5zm14 6a1 1 0 0 1 1 1v3h-30v-3a1 1 0 0 1 1-1zm-42-36h16v16h-16zm5 18h3.43a23 23 0 0 0 -.3 23.5 1 1 0 0 0 .87.5h38.1a1 1 0 0 0 .87-.5 23.06 23.06 0 0 0 3.03-11.5 22.81 22.81 0 0 0 -2.94-11.23l2.83-1.1a26 26 0 1 1 -45.89.33zm-5 38v-3a7 7 0 0 1 5.21-6.76 28.12 28.12 0 0 0 12.42 9.76zm56 0h-17.63a28.12 28.12 0 0 0 12.42-9.76 7 7 0 0 1 5.21 6.76z" data-original="#000000" class="" style="fill:#000000"/><path d="m21 54a3 3 0 1 0 -3-3 3 3 0 0 0 3 3zm0-4a1 1 0 1 1 -1 1 1 1 0 0 1 1-1z" data-original="#000000" class="" style="fill:#000000"/><path d="m32 54a3 3 0 1 0 -3-3 3 3 0 0 0 3 3zm0-4a1 1 0 1 1 -1 1 1 1 0 0 1 1-1z" data-original="#000000" class="" style="fill:#000000"/><path d="m43 54a3 3 0 1 0 -3-3 3 3 0 0 0 3 3zm0-4a1 1 0 1 1 -1 1 1 1 0 0 1 1-1z" data-original="#000000" class="" style="fill:#000000"/><path d="m61 2h-10a1 1 0 0 0 -1 1v4a1 1 0 0 0 1 1h10a1 1 0 0 0 1-1v-4a1 1 0 0 0 -1-1zm-1 4h-8v-2h8z" data-original="#000000" class="" style="fill:#000000"/><path d="m61 10h-5a1 1 0 0 0 0 2h5a1 1 0 0 0 0-2z" data-original="#000000" class="" style="fill:#000000"/><path d="m18.88 9.61a3.49 3.49 0 0 0 -2.26-2.43 3.91 3.91 0 0 0 -.88-.18 2 2 0 0 0 -1.74-1h-1a2 2 0 0 0 -1 .28 2 2 0 0 0 -1-.28h-1a2 2 0 0 0 -1.74 1 3.91 3.91 0 0 0 -.88.17 3.49 3.49 0 0 0 -2.26 2.44 3.42 3.42 0 0 0 .13 2.19 3.07 3.07 0 0 0 -.25 1.2 3 3 0 0 0 2.76 3 3 3 0 0 0 2.24 1h.21a2.93 2.93 0 0 0 1.79-.8 2.92 2.92 0 0 0 1.78.8h.22a3 3 0 0 0 2.24-1 3 3 0 0 0 2.76-3 3.07 3.07 0 0 0 -.25-1.2 3.42 3.42 0 0 0 .13-2.19zm-8.81 5.39a1 1 0 0 1 -.94-.52 1 1 0 0 0 -.87-.48h-.13-.13a1 1 0 0 1 -1-1h1a1 1 0 0 0 0-2h-.9a1.44 1.44 0 0 1 0-.89 1.52 1.52 0 0 1 1-1 1.56 1.56 0 0 1 .71-.11 1 1 0 0 0 1.19-1h1v2a1 1 0 0 0 0 2v1.87a1.1 1.1 0 0 1 -.93 1.13zm5.93-1h-.14a1 1 0 0 0 -1 .5 1 1 0 0 1 -.94.52 1.1 1.1 0 0 1 -.92-1.15v-1.87a1 1 0 0 0 0-2v-2h1a1 1 0 0 0 1.2 1 1.56 1.56 0 0 1 .8.05 1.52 1.52 0 0 1 1 1 1.44 1.44 0 0 1 -.05.89h-.95a1 1 0 0 0 0 2h1a1 1 0 0 1 -1 1.06z" data-original="#000000" class="" style="fill:#000000"/><path d="m22 27h-5v-3a1 1 0 0 0 -2 0v4a1 1 0 0 0 1 1h6a1 1 0 0 0 0-2z" data-original="#000000" class="" style="fill:#000000"/></g></g> </svg>
