<?xml version="1.0"?>
<svg xmlns="http://www.w3.org/2000/svg" id="Layer_1" data-name="Layer 1" viewBox="0 0 512 512" width="512" height="512"><title>bp checking monitor</title><path d="M462.981,356.035A55.8,55.8,0,0,0,482,314.064V112.936A56,56,0,0,0,426.065,57H85.936A56,56,0,0,0,30,112.936V314.064a55.8,55.8,0,0,0,19.019,41.971C32.072,356.757,19,370.081,19,386.968v37.064C19,441.659,33.117,456,50.468,456H461.532C478.883,456,493,441.659,493,424.032V386.968C493,370.081,479.928,356.757,462.981,356.035ZM85.936,71H426.065A41.983,41.983,0,0,1,468,112.936v89.652l-33,.021a7,7,0,0,0-6.536,4.5l-3.069,8.045-7.213-23.326A6.9,6.9,0,0,0,411.49,187h-.021a6.892,6.892,0,0,0-6.681,4.871L394.905,224.6l-18.966-93.351a7,7,0,0,0-13.806.507l-15.2,121.724-17.154-90.675a7,7,0,0,0-13.681-.346l-13.321,55.067-5.621-11.585a7,7,0,0,0-6.3-3.944H232.521l-10.084-28.366A6.979,6.979,0,0,0,215.842,169h-.1a6.92,6.92,0,0,0-6.559,4.827l-6.313,19.559-11.425-37.843a7,7,0,0,0-13.562.627l-16.008,78.909L146.447,111.914a7,7,0,0,0-13.825-.423l-19.506,103.78L102.942,174.2a7,7,0,0,0-13.217-1.1L77.419,201.491,44,201.427V112.936A41.983,41.983,0,0,1,85.936,71ZM44,314.064V215.427L82,216h.013a7.237,7.237,0,0,0,6.422-4.466l5.9-13.737,12.927,52.119a7,7,0,0,0,13.674-.438l17.182-91.418L153.29,279.224a7,7,0,0,0,13.806.518l18.978-93.548,9.87,32.759A7.031,7.031,0,0,0,202.58,224h.066a7.066,7.066,0,0,0,6.662-4.921L216.16,197.8l4.822,13.559a6.984,6.984,0,0,0,6.6,4.64h58.893l12.222,25.189a7,7,0,0,0,13.1-1.411l10.266-42.437,19.406,102.582a7,7,0,0,0,6.875,5.7c.074,0,.148,0,.222,0a7,7,0,0,0,6.727-6.129l15.438-123.6,15.993,78.7a7,7,0,0,0,13.562.626l11.276-37.4,6.433,20.9a7,7,0,0,0,13.231.437l8.6-22.541L468,216.588v97.476A41.983,41.983,0,0,1,426.065,356H85.936A41.983,41.983,0,0,1,44,314.064ZM479,424.032c0,9.739-8,17.968-17.468,17.968H50.468C41,442,33,433.771,33,424.032V386.968C33,377.453,40.673,370,50.468,370H77a6.968,6.968,0,0,0,2.325-.4,56.144,56.144,0,0,0,6.611.4H426.065a56.133,56.133,0,0,0,5.872-.31A6.993,6.993,0,0,0,434,370h27.532c9.8,0,17.468,7.453,17.468,16.968Z"/><path d="M78.5,380.44a24.5,24.5,0,1,0,24.5,24.5A24.528,24.528,0,0,0,78.5,380.44Zm0,35A10.5,10.5,0,1,1,89,404.94,10.512,10.512,0,0,1,78.5,415.44Z"/><path d="M391,387H352a7,7,0,0,0-7,7v30a7,7,0,0,0,7,7h39a7,7,0,0,0,7-7V394A7,7,0,0,0,391,387Zm-7,30H359V401h25Z"/><path d="M450,387H413a7,7,0,0,0-7,7v30a7,7,0,0,0,7,7h37a7,7,0,0,0,7-7V394A7,7,0,0,0,450,387Zm-7,30H420V401h23Z"/><path d="M281,378H161a22.025,22.025,0,0,0-22,22v14a22.025,22.025,0,0,0,22,22H281a22.025,22.025,0,0,0,22-22V400A22.025,22.025,0,0,0,281,378Zm8,36a8.009,8.009,0,0,1-8,8H161a8.009,8.009,0,0,1-8-8V400a8.009,8.009,0,0,1,8-8H281a8.009,8.009,0,0,1,8,8Z"/></svg>
