<svg id="Layer_5" enable-background="new 0 0 64 64" height="512" viewBox="0 0 64 64" width="512" xmlns="http://www.w3.org/2000/svg"><path d="m5 39h2v2h-2z"/><path d="m9 39h2v2h-2z"/><path d="m13 39h2v2h-2z"/><path d="m52 1h-6-4-12c-6.065 0-11 4.935-11 11v9.529c-.495.161-.982.344-1.447.577-1.171.584-2.482.894-3.789.894h-12.764v10h22 10 3c1.378 0 2.677-.569 3.608-1.539 1.206.969 2.738 1.539 4.392 1.539 1.9 0 3.686-.765 5-2.109v4.109h-45c-1.654 0-3 1.346-3 3v4c0 1.654 1.346 3 3 3h15v4h-1c-1.654 0-3 1.346-3 3 0 .771.301 1.468.78 2-.48.532-.78 1.229-.78 2s.301 1.468.78 2c-.48.532-.78 1.229-.78 2 0 1.654 1.346 3 3 3h45v-51c0-6.065-4.935-11-11-11zm-31 11c0-4.963 4.037-9 9-9h12 4c4.963 0 9 4.037 9 9v49h-4v-49c0-2.757-2.243-5-5-5h-4-5-7c-2.757 0-5 2.243-5 5v9h-2.764c-.413 0-.826.026-1.236.076zm-4 44c0-.552.448-1 1-1h31v2h-31c-.552 0-1-.448-1-1zm15-34.961c-.288-.024-.576-.039-.867-.039h-4.133v-9c0-1.654 1.346-3 3-3h3.026c-.635.838-1.026 1.87-1.026 3zm4 9.961h-3-10c-.552 0-1-.448-1-1s.448-1 1-1h9v-2h-9c-1.654 0-3 1.346-3 3 0 .352.072.686.184 1h-17.184v-6h10.764c1.616 0 3.235-.382 4.684-1.105 1.17-.585 2.481-.895 3.788-.895h8.896c1.677 0 3.302.492 4.697 1.422l.868.578h2.352l.235-.667c.833-2.356 3.228-3.71 5.716-3.233v2.262c0 1.201-.714 2.284-1.828 2.763l-3.824 1.691c-.121-.313-.221-.638-.278-.982l-1.973.332c.176 1.046.575 2.003 1.145 2.826-.563.634-1.377 1.008-2.242 1.008zm11.882-1.849c-.955 1.175-2.37 1.849-3.882 1.849-1.383 0-2.632-.57-3.542-1.489l3.513-1.553c1.84-.789 3.029-2.594 3.029-4.596v-1.378c.947.708 1.64 1.747 1.887 2.929.316 1.52-.05 3.064-1.005 4.238zm-2.447-10.007c-3.244-.648-6.396.955-7.762 3.856h-.37l-.362-.242c-.912-.608-1.904-1.059-2.94-1.354v-9.404c0-1.654 1.346-3 3-3h5 4c1.654 0 3 1.346 3 3v9.098c-.959-.976-2.194-1.68-3.566-1.954zm-42.435 22.856v-4c0-.552.448-1 1-1h45v4h-16.236l-4 2h-24.764c-.552 0-1-.448-1-1zm18 3h8.236l4-2h15.764v6h-28zm-3 6h31v2h-31c-.552 0-1-.448-1-1s.448-1 1-1zm-1 9c0-.552.448-1 1-1h31v2h-31c-.552 0-1-.448-1-1zm44 1h-4v-49c0-3.71-1.851-6.99-4.673-8.983 4.811.174 8.673 4.13 8.673 8.983z"/></svg>